<svg width="117" height="951" viewBox="0 0 117 951" fill="none" xmlns="http://www.w3.org/2000/svg">
<path d="M62 1C73.2762 59.8223 81.603 103.259 90.4922 149.63C103.564 217.816 97.0795 288.31 71.7887 352.968L58.9414 385.813C21.3822 481.835 25.829 589.21 71.199 681.798L86.5907 713.208C102.02 744.695 105.686 780.66 96.927 814.613L62 950" stroke="#FFBD59" stroke-width="2"/>
<path d="M68 1L96.4925 149.631C109.564 217.817 103.08 288.31 77.7886 352.968L64.9414 385.813C27.3822 481.835 31.829 589.21 77.199 681.798L92.5907 713.208C108.02 744.695 111.686 780.66 102.927 814.613L68 950" stroke="#F4E4CC" stroke-width="2"/>
</svg>
